<svg width="500" height="500" viewBox="0 0 500 500" fill="none" xmlns="http://www.w3.org/2000/svg">
<path d="M276.449 348.767H212.342V372.238H303.423C313.232 343.653 297.701 317.589 288.71 308.131C266.57 285.15 230.675 288.513 215.494 293.067C184.106 302.315 170.097 334.824 169.253 351.57C165.61 423.874 221.45 438.214 249.825 436.346C270.003 437.747 292.096 421.749 300.621 413.575L285.207 394.308C275.398 405.518 257.532 409.722 249.825 410.422C213.673 411.263 201.832 388.119 200.431 376.442C190.902 337.207 215.845 319.457 229.507 315.487C266.5 309.602 276.216 335.222 276.449 348.767Z" fill="#007297"/>
<path d="M249.235 224.354L224.763 210.843L378.734 131.309L404.226 142.78L249.235 224.354Z" fill="#007296"/>
<path d="M215.585 208.039L191.113 194.528L345.085 114.994L370.576 126.465L215.585 208.039Z" fill="#007296"/>
<path d="M120.246 156.545L95.7739 143.035L249.745 63.5002L275.237 74.9713L120.246 156.545Z" fill="#007296"/>
<path d="M182.828 189.94L158.356 176.429L246.176 131.819L270.393 142.78L182.828 189.94Z" fill="#007296"/>
<path d="M149.816 175.154L125.344 161.644L241.124 99.6387L269.118 112.445L149.816 175.154Z" fill="#E56E19"/>
<path d="M123.815 272.533L126.109 161.899L149.307 174.135L148.032 282.22L132.737 265.396L123.815 272.533Z" fill="#D75D0A"/>
<path d="M247.451 235.825L170.211 194.019V235.825C215.586 291.652 311.945 261.572 325.966 235.825V194.019L247.451 235.825Z" fill="#007296"/>
</svg>
