<svg width="500" height="500" viewBox="0 0 500 500" fill="none" xmlns="http://www.w3.org/2000/svg">
<g clip-path="url(#clip0_3665_2)">
<path d="M336.743 406.973L214.552 366.243L430.844 345.175L336.743 406.973Z" fill="#BDBDBD"/>
<path d="M214.551 141.523L336.742 95.1746V406.972L214.551 366.242V141.523Z" fill="#0295A9"/>
<path d="M163.123 322.691V188.984H195.595V322.691H163.123ZM80.224 322.691V188.984H112.696V322.691H80.224ZM92.8308 270.545L93.0218 241.512H180.314V270.545H92.8308Z" fill="#DEAD00"/>
<path d="M239.333 322.691V221.264H268.367L269.704 254.309L263.973 248.006C265.502 242.53 267.985 237.628 271.423 233.298C274.988 228.969 279.127 225.53 283.839 222.984C288.55 220.437 293.58 219.163 298.929 219.163C301.221 219.163 303.322 219.354 305.232 219.736C307.269 220.118 309.116 220.564 310.771 221.073L302.367 254.882C300.966 253.991 299.056 253.291 296.636 252.781C294.344 252.145 291.925 251.826 289.378 251.826C286.577 251.826 283.966 252.336 281.547 253.354C279.127 254.246 277.09 255.583 275.434 257.366C273.779 259.148 272.442 261.25 271.423 263.669C270.532 266.088 270.086 268.826 270.086 271.882V322.691H239.333Z" fill="white"/>
</g>
<defs>
<clipPath id="clip0_3665_2">
<rect width="373.169" height="373.169" fill="white" transform="translate(63.4155 63.4155)"/>
</clipPath>
</defs>
</svg>
